<?xml version="1.0" encoding="UTF-8"?>
<svg width="313px" height="57px" viewBox="0 0 313 57" version="1.1" xmlns="http://www.w3.org/2000/svg" xmlns:xlink="http://www.w3.org/1999/xlink">
    <!-- Generator: Sketch 57.1 (83088) - https://sketch.com -->
    <title>ANIMER</title>
    <desc>Created with Sketch.</desc>
    <g id="Page-1" stroke="none" stroke-width="1" fill="none" fill-rule="evenodd">
        <path d="M23.04,0 L43.28,0 L65.36,56.64 L44.64,56.64 L41.68,48.32 L23.68,48.32 L20.88,56.64 L0.72,56.64 L23.04,0 Z M32.88,19.76 L28.24,33.76 L37.44,33.76 L32.88,19.76 Z M62,0 L80.96,0 L97.12,28.72 L97.44,28.72 L96.64,0 L114.72,0 L114.72,56.64 L95.28,56.64 L79.6,29.6 L79.28,29.6 L80.08,56.64 L62,56.64 L62,0 Z M122.3,0 L141.5,0 L141.5,56.64 L122.3,56.64 L122.3,0 Z M173.88,0 L184.12,30.48 L184.52,30.48 L193.4,0 L219.08,0 L219.08,56.64 L200.6,56.64 L201.16,24.8 L200.68,24.72 L190.12,56.64 L176.68,56.64 L166.28,24.64 L165.88,24.64 L166.76,56.64 L149,56.64 L149,0 L173.88,0 Z M268,35.64 L268,42.64 L235,42.64 L235,35.64 L268,35.64 Z M268,14.64 L268,21.64 L235,21.64 L235,14.64 L268,14.64 Z M261.28,0 L285.68,0 C288.453347,0 291.21332,0.2799972 293.96,0.84 C296.70668,1.4000028 299.159989,2.3866596 301.32,3.8 C303.480011,5.2133404 305.22666,7.1066548 306.56,9.48 C307.89334,11.8533452 308.56,14.8266488 308.56,18.4 C308.56,21.866684 307.706675,24.9199868 306,27.56 C304.293325,30.2000132 301.840016,32.2399928 298.64,33.68 L313.04,56.64 L291.12,56.64 L280.24,36.4 L279.68,36.4 L279.68,56.64 L261.28,56.64 L261.28,0 Z M279.52,23.92 L283.28,23.92 C283.920003,23.92 284.626663,23.8666672 285.4,23.76 C286.173337,23.6533328 286.89333,23.4266684 287.56,23.08 C288.22667,22.7333316 288.786664,22.2533364 289.24,21.64 C289.693336,21.0266636 289.92,20.2133384 289.92,19.2 C289.92,18.1866616 289.733335,17.3866696 289.36,16.8 C288.986665,16.2133304 288.50667,15.7733348 287.92,15.48 C287.33333,15.1866652 286.693337,15.0000004 286,14.92 C285.306663,14.8399996 284.66667,14.8 284.08,14.8 L279.52,14.8 L279.52,23.92 Z" id="ANIMER" fill="#000000" fill-rule="nonzero"></path>
    </g>
</svg>